<mxfile host="app.diagrams.net" modified="2024-05-25T11:57:42.304Z" agent="Mozilla/5.0 (Windows NT 10.0; Win64; x64) AppleWebKit/537.36 (KHTML, like Gecko) Chrome/125.0.0.0 Safari/537.36" etag="EVxfwYCJeI7SkTZYP3zs" version="24.4.6" type="device">
  <diagram id="C5RBs43oDa-KdzZeNtuy" name="Page-1">
    <mxGraphModel dx="2556" dy="1020" grid="1" gridSize="10" guides="1" tooltips="1" connect="1" arrows="1" fold="1" page="1" pageScale="1" pageWidth="827" pageHeight="1169" math="0" shadow="0">
      <root>
        <mxCell id="WIyWlLk6GJQsqaUBKTNV-0" />
        <mxCell id="WIyWlLk6GJQsqaUBKTNV-1" parent="WIyWlLk6GJQsqaUBKTNV-0" />
        <mxCell id="zkfFHV4jXpPFQw0GAbJ--0" value="&lt;&lt;interface&gt;&gt; IFactory" style="swimlane;fontStyle=2;align=center;verticalAlign=top;childLayout=stackLayout;horizontal=1;startSize=26;horizontalStack=0;resizeParent=1;resizeLast=0;collapsible=1;marginBottom=0;rounded=0;shadow=0;strokeWidth=1;" parent="WIyWlLk6GJQsqaUBKTNV-1" vertex="1">
          <mxGeometry x="220" y="120" width="160" height="110" as="geometry">
            <mxRectangle x="230" y="140" width="160" height="26" as="alternateBounds" />
          </mxGeometry>
        </mxCell>
        <mxCell id="zkfFHV4jXpPFQw0GAbJ--1" value="+ getA(float)" style="text;align=left;verticalAlign=top;spacingLeft=4;spacingRight=4;overflow=hidden;rotatable=0;points=[[0,0.5],[1,0.5]];portConstraint=eastwest;" parent="zkfFHV4jXpPFQw0GAbJ--0" vertex="1">
          <mxGeometry y="26" width="160" height="26" as="geometry" />
        </mxCell>
        <mxCell id="zkfFHV4jXpPFQw0GAbJ--2" value="+ getB(float, float)" style="text;align=left;verticalAlign=top;spacingLeft=4;spacingRight=4;overflow=hidden;rotatable=0;points=[[0,0.5],[1,0.5]];portConstraint=eastwest;rounded=0;shadow=0;html=0;" parent="zkfFHV4jXpPFQw0GAbJ--0" vertex="1">
          <mxGeometry y="52" width="160" height="26" as="geometry" />
        </mxCell>
        <mxCell id="zkfFHV4jXpPFQw0GAbJ--3" value="+ getC(float, float, float)" style="text;align=left;verticalAlign=top;spacingLeft=4;spacingRight=4;overflow=hidden;rotatable=0;points=[[0,0.5],[1,0.5]];portConstraint=eastwest;rounded=0;shadow=0;html=0;" parent="zkfFHV4jXpPFQw0GAbJ--0" vertex="1">
          <mxGeometry y="78" width="160" height="26" as="geometry" />
        </mxCell>
        <mxCell id="r0Q2gzQOlGDnuy_zxtXr-0" value="Factory1" style="swimlane;fontStyle=2;align=center;verticalAlign=top;childLayout=stackLayout;horizontal=1;startSize=26;horizontalStack=0;resizeParent=1;resizeLast=0;collapsible=1;marginBottom=0;rounded=0;shadow=0;strokeWidth=1;" parent="WIyWlLk6GJQsqaUBKTNV-1" vertex="1">
          <mxGeometry x="40" y="320" width="160" height="110" as="geometry">
            <mxRectangle x="230" y="140" width="160" height="26" as="alternateBounds" />
          </mxGeometry>
        </mxCell>
        <mxCell id="r0Q2gzQOlGDnuy_zxtXr-1" value="+ getA(float)" style="text;align=left;verticalAlign=top;spacingLeft=4;spacingRight=4;overflow=hidden;rotatable=0;points=[[0,0.5],[1,0.5]];portConstraint=eastwest;" parent="r0Q2gzQOlGDnuy_zxtXr-0" vertex="1">
          <mxGeometry y="26" width="160" height="26" as="geometry" />
        </mxCell>
        <mxCell id="r0Q2gzQOlGDnuy_zxtXr-2" value="+ getB(float, float)" style="text;align=left;verticalAlign=top;spacingLeft=4;spacingRight=4;overflow=hidden;rotatable=0;points=[[0,0.5],[1,0.5]];portConstraint=eastwest;rounded=0;shadow=0;html=0;" parent="r0Q2gzQOlGDnuy_zxtXr-0" vertex="1">
          <mxGeometry y="52" width="160" height="26" as="geometry" />
        </mxCell>
        <mxCell id="r0Q2gzQOlGDnuy_zxtXr-3" value="+ getC(float, float, float)" style="text;align=left;verticalAlign=top;spacingLeft=4;spacingRight=4;overflow=hidden;rotatable=0;points=[[0,0.5],[1,0.5]];portConstraint=eastwest;rounded=0;shadow=0;html=0;" parent="r0Q2gzQOlGDnuy_zxtXr-0" vertex="1">
          <mxGeometry y="78" width="160" height="26" as="geometry" />
        </mxCell>
        <mxCell id="r0Q2gzQOlGDnuy_zxtXr-4" value="Factory2" style="swimlane;fontStyle=2;align=center;verticalAlign=top;childLayout=stackLayout;horizontal=1;startSize=26;horizontalStack=0;resizeParent=1;resizeLast=0;collapsible=1;marginBottom=0;rounded=0;shadow=0;strokeWidth=1;" parent="WIyWlLk6GJQsqaUBKTNV-1" vertex="1">
          <mxGeometry x="210" y="320" width="160" height="110" as="geometry">
            <mxRectangle x="230" y="140" width="160" height="26" as="alternateBounds" />
          </mxGeometry>
        </mxCell>
        <mxCell id="r0Q2gzQOlGDnuy_zxtXr-5" value="+ getA(float)" style="text;align=left;verticalAlign=top;spacingLeft=4;spacingRight=4;overflow=hidden;rotatable=0;points=[[0,0.5],[1,0.5]];portConstraint=eastwest;" parent="r0Q2gzQOlGDnuy_zxtXr-4" vertex="1">
          <mxGeometry y="26" width="160" height="26" as="geometry" />
        </mxCell>
        <mxCell id="r0Q2gzQOlGDnuy_zxtXr-6" value="+ getB(float, float)" style="text;align=left;verticalAlign=top;spacingLeft=4;spacingRight=4;overflow=hidden;rotatable=0;points=[[0,0.5],[1,0.5]];portConstraint=eastwest;rounded=0;shadow=0;html=0;" parent="r0Q2gzQOlGDnuy_zxtXr-4" vertex="1">
          <mxGeometry y="52" width="160" height="26" as="geometry" />
        </mxCell>
        <mxCell id="r0Q2gzQOlGDnuy_zxtXr-7" value="+ getC(float, float, float)" style="text;align=left;verticalAlign=top;spacingLeft=4;spacingRight=4;overflow=hidden;rotatable=0;points=[[0,0.5],[1,0.5]];portConstraint=eastwest;rounded=0;shadow=0;html=0;" parent="r0Q2gzQOlGDnuy_zxtXr-4" vertex="1">
          <mxGeometry y="78" width="160" height="26" as="geometry" />
        </mxCell>
        <mxCell id="r0Q2gzQOlGDnuy_zxtXr-8" value="Factory3" style="swimlane;fontStyle=2;align=center;verticalAlign=top;childLayout=stackLayout;horizontal=1;startSize=26;horizontalStack=0;resizeParent=1;resizeLast=0;collapsible=1;marginBottom=0;rounded=0;shadow=0;strokeWidth=1;" parent="WIyWlLk6GJQsqaUBKTNV-1" vertex="1">
          <mxGeometry x="390" y="320" width="160" height="110" as="geometry">
            <mxRectangle x="230" y="140" width="160" height="26" as="alternateBounds" />
          </mxGeometry>
        </mxCell>
        <mxCell id="r0Q2gzQOlGDnuy_zxtXr-9" value="+ getA(float)" style="text;align=left;verticalAlign=top;spacingLeft=4;spacingRight=4;overflow=hidden;rotatable=0;points=[[0,0.5],[1,0.5]];portConstraint=eastwest;" parent="r0Q2gzQOlGDnuy_zxtXr-8" vertex="1">
          <mxGeometry y="26" width="160" height="26" as="geometry" />
        </mxCell>
        <mxCell id="r0Q2gzQOlGDnuy_zxtXr-10" value="+ getB(float, float)" style="text;align=left;verticalAlign=top;spacingLeft=4;spacingRight=4;overflow=hidden;rotatable=0;points=[[0,0.5],[1,0.5]];portConstraint=eastwest;rounded=0;shadow=0;html=0;" parent="r0Q2gzQOlGDnuy_zxtXr-8" vertex="1">
          <mxGeometry y="52" width="160" height="26" as="geometry" />
        </mxCell>
        <mxCell id="r0Q2gzQOlGDnuy_zxtXr-11" value="+ getC(float, float, float)" style="text;align=left;verticalAlign=top;spacingLeft=4;spacingRight=4;overflow=hidden;rotatable=0;points=[[0,0.5],[1,0.5]];portConstraint=eastwest;rounded=0;shadow=0;html=0;" parent="r0Q2gzQOlGDnuy_zxtXr-8" vertex="1">
          <mxGeometry y="78" width="160" height="26" as="geometry" />
        </mxCell>
        <mxCell id="r0Q2gzQOlGDnuy_zxtXr-12" value="&lt;&lt;interface&gt;&gt; IBonus" style="swimlane;fontStyle=2;align=center;verticalAlign=top;childLayout=stackLayout;horizontal=1;startSize=26;horizontalStack=0;resizeParent=1;resizeLast=0;collapsible=1;marginBottom=0;rounded=0;shadow=0;strokeWidth=1;" parent="WIyWlLk6GJQsqaUBKTNV-1" vertex="1">
          <mxGeometry x="847" y="260" width="160" height="110" as="geometry">
            <mxRectangle x="230" y="140" width="160" height="26" as="alternateBounds" />
          </mxGeometry>
        </mxCell>
        <mxCell id="r0Q2gzQOlGDnuy_zxtXr-13" value="&lt;&lt;getter&gt;&gt;+ cost1hour" style="text;align=left;verticalAlign=top;spacingLeft=4;spacingRight=4;overflow=hidden;rotatable=0;points=[[0,0.5],[1,0.5]];portConstraint=eastwest;" parent="r0Q2gzQOlGDnuy_zxtXr-12" vertex="1">
          <mxGeometry y="26" width="160" height="26" as="geometry" />
        </mxCell>
        <mxCell id="r0Q2gzQOlGDnuy_zxtXr-14" value="&lt;&lt;setter&gt;&gt;+ cost1hour" style="text;align=left;verticalAlign=top;spacingLeft=4;spacingRight=4;overflow=hidden;rotatable=0;points=[[0,0.5],[1,0.5]];portConstraint=eastwest;rounded=0;shadow=0;html=0;" parent="r0Q2gzQOlGDnuy_zxtXr-12" vertex="1">
          <mxGeometry y="52" width="160" height="26" as="geometry" />
        </mxCell>
        <mxCell id="r0Q2gzQOlGDnuy_zxtXr-15" value="+ calc(float)" style="text;align=left;verticalAlign=top;spacingLeft=4;spacingRight=4;overflow=hidden;rotatable=0;points=[[0,0.5],[1,0.5]];portConstraint=eastwest;rounded=0;shadow=0;html=0;" parent="r0Q2gzQOlGDnuy_zxtXr-12" vertex="1">
          <mxGeometry y="78" width="160" height="26" as="geometry" />
        </mxCell>
        <mxCell id="r0Q2gzQOlGDnuy_zxtXr-16" value="BonusA1" style="swimlane;fontStyle=2;align=center;verticalAlign=top;childLayout=stackLayout;horizontal=1;startSize=26;horizontalStack=0;resizeParent=1;resizeLast=0;collapsible=1;marginBottom=0;rounded=0;shadow=0;strokeWidth=1;" parent="WIyWlLk6GJQsqaUBKTNV-1" vertex="1">
          <mxGeometry x="610" y="400" width="160" height="110" as="geometry">
            <mxRectangle x="230" y="140" width="160" height="26" as="alternateBounds" />
          </mxGeometry>
        </mxCell>
        <mxCell id="r0Q2gzQOlGDnuy_zxtXr-17" value="&lt;&lt;getter&gt;&gt;+ cost1hour" style="text;align=left;verticalAlign=top;spacingLeft=4;spacingRight=4;overflow=hidden;rotatable=0;points=[[0,0.5],[1,0.5]];portConstraint=eastwest;" parent="r0Q2gzQOlGDnuy_zxtXr-16" vertex="1">
          <mxGeometry y="26" width="160" height="26" as="geometry" />
        </mxCell>
        <mxCell id="r0Q2gzQOlGDnuy_zxtXr-18" value="&lt;&lt;setter&gt;&gt;+ cost1hour" style="text;align=left;verticalAlign=top;spacingLeft=4;spacingRight=4;overflow=hidden;rotatable=0;points=[[0,0.5],[1,0.5]];portConstraint=eastwest;rounded=0;shadow=0;html=0;" parent="r0Q2gzQOlGDnuy_zxtXr-16" vertex="1">
          <mxGeometry y="52" width="160" height="26" as="geometry" />
        </mxCell>
        <mxCell id="r0Q2gzQOlGDnuy_zxtXr-19" value="+ calc(float)" style="text;align=left;verticalAlign=top;spacingLeft=4;spacingRight=4;overflow=hidden;rotatable=0;points=[[0,0.5],[1,0.5]];portConstraint=eastwest;rounded=0;shadow=0;html=0;" parent="r0Q2gzQOlGDnuy_zxtXr-16" vertex="1">
          <mxGeometry y="78" width="160" height="26" as="geometry" />
        </mxCell>
        <mxCell id="r0Q2gzQOlGDnuy_zxtXr-20" value="BonusB1" style="swimlane;fontStyle=2;align=center;verticalAlign=top;childLayout=stackLayout;horizontal=1;startSize=26;horizontalStack=0;resizeParent=1;resizeLast=0;collapsible=1;marginBottom=0;rounded=0;shadow=0;strokeWidth=1;" parent="WIyWlLk6GJQsqaUBKTNV-1" vertex="1">
          <mxGeometry x="610" y="530" width="160" height="170" as="geometry">
            <mxRectangle x="230" y="140" width="160" height="26" as="alternateBounds" />
          </mxGeometry>
        </mxCell>
        <mxCell id="r0Q2gzQOlGDnuy_zxtXr-21" value="&lt;&lt;getter&gt;&gt;+ cost1hour" style="text;align=left;verticalAlign=top;spacingLeft=4;spacingRight=4;overflow=hidden;rotatable=0;points=[[0,0.5],[1,0.5]];portConstraint=eastwest;" parent="r0Q2gzQOlGDnuy_zxtXr-20" vertex="1">
          <mxGeometry y="26" width="160" height="26" as="geometry" />
        </mxCell>
        <mxCell id="r0Q2gzQOlGDnuy_zxtXr-22" value="&lt;&lt;setter&gt;&gt;+ cost1hour" style="text;align=left;verticalAlign=top;spacingLeft=4;spacingRight=4;overflow=hidden;rotatable=0;points=[[0,0.5],[1,0.5]];portConstraint=eastwest;rounded=0;shadow=0;html=0;" parent="r0Q2gzQOlGDnuy_zxtXr-20" vertex="1">
          <mxGeometry y="52" width="160" height="26" as="geometry" />
        </mxCell>
        <mxCell id="r0Q2gzQOlGDnuy_zxtXr-23" value="+ calc(float)" style="text;align=left;verticalAlign=top;spacingLeft=4;spacingRight=4;overflow=hidden;rotatable=0;points=[[0,0.5],[1,0.5]];portConstraint=eastwest;rounded=0;shadow=0;html=0;" parent="r0Q2gzQOlGDnuy_zxtXr-20" vertex="1">
          <mxGeometry y="78" width="160" height="26" as="geometry" />
        </mxCell>
        <mxCell id="r0Q2gzQOlGDnuy_zxtXr-25" value="&lt;&lt;getter&gt;&gt;+ x" style="text;align=left;verticalAlign=top;spacingLeft=4;spacingRight=4;overflow=hidden;rotatable=0;points=[[0,0.5],[1,0.5]];portConstraint=eastwest;" parent="r0Q2gzQOlGDnuy_zxtXr-20" vertex="1">
          <mxGeometry y="104" width="160" height="26" as="geometry" />
        </mxCell>
        <mxCell id="r0Q2gzQOlGDnuy_zxtXr-31" value="&lt;&lt;setter&gt;&gt;+ x" style="text;align=left;verticalAlign=top;spacingLeft=4;spacingRight=4;overflow=hidden;rotatable=0;points=[[0,0.5],[1,0.5]];portConstraint=eastwest;rounded=0;shadow=0;html=0;" parent="r0Q2gzQOlGDnuy_zxtXr-20" vertex="1">
          <mxGeometry y="130" width="160" height="26" as="geometry" />
        </mxCell>
        <mxCell id="r0Q2gzQOlGDnuy_zxtXr-32" value="BonusC1" style="swimlane;fontStyle=2;align=center;verticalAlign=top;childLayout=stackLayout;horizontal=1;startSize=26;horizontalStack=0;resizeParent=1;resizeLast=0;collapsible=1;marginBottom=0;rounded=0;shadow=0;strokeWidth=1;" parent="WIyWlLk6GJQsqaUBKTNV-1" vertex="1">
          <mxGeometry x="610" y="720" width="160" height="210" as="geometry">
            <mxRectangle x="230" y="140" width="160" height="26" as="alternateBounds" />
          </mxGeometry>
        </mxCell>
        <mxCell id="r0Q2gzQOlGDnuy_zxtXr-33" value="&lt;&lt;getter&gt;&gt;+ cost1hour" style="text;align=left;verticalAlign=top;spacingLeft=4;spacingRight=4;overflow=hidden;rotatable=0;points=[[0,0.5],[1,0.5]];portConstraint=eastwest;" parent="r0Q2gzQOlGDnuy_zxtXr-32" vertex="1">
          <mxGeometry y="26" width="160" height="26" as="geometry" />
        </mxCell>
        <mxCell id="r0Q2gzQOlGDnuy_zxtXr-34" value="&lt;&lt;setter&gt;&gt;+ cost1hour" style="text;align=left;verticalAlign=top;spacingLeft=4;spacingRight=4;overflow=hidden;rotatable=0;points=[[0,0.5],[1,0.5]];portConstraint=eastwest;rounded=0;shadow=0;html=0;" parent="r0Q2gzQOlGDnuy_zxtXr-32" vertex="1">
          <mxGeometry y="52" width="160" height="26" as="geometry" />
        </mxCell>
        <mxCell id="r0Q2gzQOlGDnuy_zxtXr-35" value="+ calc(float)" style="text;align=left;verticalAlign=top;spacingLeft=4;spacingRight=4;overflow=hidden;rotatable=0;points=[[0,0.5],[1,0.5]];portConstraint=eastwest;rounded=0;shadow=0;html=0;" parent="r0Q2gzQOlGDnuy_zxtXr-32" vertex="1">
          <mxGeometry y="78" width="160" height="26" as="geometry" />
        </mxCell>
        <mxCell id="r0Q2gzQOlGDnuy_zxtXr-36" value="&lt;&lt;getter&gt;&gt;+ x" style="text;align=left;verticalAlign=top;spacingLeft=4;spacingRight=4;overflow=hidden;rotatable=0;points=[[0,0.5],[1,0.5]];portConstraint=eastwest;" parent="r0Q2gzQOlGDnuy_zxtXr-32" vertex="1">
          <mxGeometry y="104" width="160" height="26" as="geometry" />
        </mxCell>
        <mxCell id="r0Q2gzQOlGDnuy_zxtXr-37" value="&lt;&lt;setter&gt;&gt;+ x" style="text;align=left;verticalAlign=top;spacingLeft=4;spacingRight=4;overflow=hidden;rotatable=0;points=[[0,0.5],[1,0.5]];portConstraint=eastwest;rounded=0;shadow=0;html=0;" parent="r0Q2gzQOlGDnuy_zxtXr-32" vertex="1">
          <mxGeometry y="130" width="160" height="26" as="geometry" />
        </mxCell>
        <mxCell id="r0Q2gzQOlGDnuy_zxtXr-38" value="&lt;&lt;getter&gt;&gt;+ y" style="text;align=left;verticalAlign=top;spacingLeft=4;spacingRight=4;overflow=hidden;rotatable=0;points=[[0,0.5],[1,0.5]];portConstraint=eastwest;" parent="r0Q2gzQOlGDnuy_zxtXr-32" vertex="1">
          <mxGeometry y="156" width="160" height="26" as="geometry" />
        </mxCell>
        <mxCell id="r0Q2gzQOlGDnuy_zxtXr-39" value="&lt;&lt;setter&gt;&gt;+ y" style="text;align=left;verticalAlign=top;spacingLeft=4;spacingRight=4;overflow=hidden;rotatable=0;points=[[0,0.5],[1,0.5]];portConstraint=eastwest;rounded=0;shadow=0;html=0;" parent="r0Q2gzQOlGDnuy_zxtXr-32" vertex="1">
          <mxGeometry y="182" width="160" height="26" as="geometry" />
        </mxCell>
        <mxCell id="r0Q2gzQOlGDnuy_zxtXr-40" value="BonusA2" style="swimlane;fontStyle=2;align=center;verticalAlign=top;childLayout=stackLayout;horizontal=1;startSize=26;horizontalStack=0;resizeParent=1;resizeLast=0;collapsible=1;marginBottom=0;rounded=0;shadow=0;strokeWidth=1;" parent="WIyWlLk6GJQsqaUBKTNV-1" vertex="1">
          <mxGeometry x="847" y="400" width="160" height="170" as="geometry">
            <mxRectangle x="230" y="140" width="160" height="26" as="alternateBounds" />
          </mxGeometry>
        </mxCell>
        <mxCell id="r0Q2gzQOlGDnuy_zxtXr-41" value="&lt;&lt;getter&gt;&gt;+ cost1hour" style="text;align=left;verticalAlign=top;spacingLeft=4;spacingRight=4;overflow=hidden;rotatable=0;points=[[0,0.5],[1,0.5]];portConstraint=eastwest;" parent="r0Q2gzQOlGDnuy_zxtXr-40" vertex="1">
          <mxGeometry y="26" width="160" height="26" as="geometry" />
        </mxCell>
        <mxCell id="r0Q2gzQOlGDnuy_zxtXr-42" value="&lt;&lt;setter&gt;&gt;+ cost1hour" style="text;align=left;verticalAlign=top;spacingLeft=4;spacingRight=4;overflow=hidden;rotatable=0;points=[[0,0.5],[1,0.5]];portConstraint=eastwest;rounded=0;shadow=0;html=0;" parent="r0Q2gzQOlGDnuy_zxtXr-40" vertex="1">
          <mxGeometry y="52" width="160" height="26" as="geometry" />
        </mxCell>
        <mxCell id="r0Q2gzQOlGDnuy_zxtXr-43" value="+ calc(float)" style="text;align=left;verticalAlign=top;spacingLeft=4;spacingRight=4;overflow=hidden;rotatable=0;points=[[0,0.5],[1,0.5]];portConstraint=eastwest;rounded=0;shadow=0;html=0;" parent="r0Q2gzQOlGDnuy_zxtXr-40" vertex="1">
          <mxGeometry y="78" width="160" height="26" as="geometry" />
        </mxCell>
        <mxCell id="r0Q2gzQOlGDnuy_zxtXr-64" value="&lt;&lt;getter&gt;&gt;+ a" style="text;align=left;verticalAlign=top;spacingLeft=4;spacingRight=4;overflow=hidden;rotatable=0;points=[[0,0.5],[1,0.5]];portConstraint=eastwest;" parent="r0Q2gzQOlGDnuy_zxtXr-40" vertex="1">
          <mxGeometry y="104" width="160" height="26" as="geometry" />
        </mxCell>
        <mxCell id="r0Q2gzQOlGDnuy_zxtXr-65" value="&lt;&lt;setter&gt;&gt;+ a" style="text;align=left;verticalAlign=top;spacingLeft=4;spacingRight=4;overflow=hidden;rotatable=0;points=[[0,0.5],[1,0.5]];portConstraint=eastwest;rounded=0;shadow=0;html=0;" parent="r0Q2gzQOlGDnuy_zxtXr-40" vertex="1">
          <mxGeometry y="130" width="160" height="26" as="geometry" />
        </mxCell>
        <mxCell id="r0Q2gzQOlGDnuy_zxtXr-44" value="BonusB2" style="swimlane;fontStyle=2;align=center;verticalAlign=top;childLayout=stackLayout;horizontal=1;startSize=26;horizontalStack=0;resizeParent=1;resizeLast=0;collapsible=1;marginBottom=0;rounded=0;shadow=0;strokeWidth=1;" parent="WIyWlLk6GJQsqaUBKTNV-1" vertex="1">
          <mxGeometry x="847" y="600" width="160" height="210" as="geometry">
            <mxRectangle x="230" y="140" width="160" height="26" as="alternateBounds" />
          </mxGeometry>
        </mxCell>
        <mxCell id="r0Q2gzQOlGDnuy_zxtXr-45" value="&lt;&lt;getter&gt;&gt;+ cost1hour" style="text;align=left;verticalAlign=top;spacingLeft=4;spacingRight=4;overflow=hidden;rotatable=0;points=[[0,0.5],[1,0.5]];portConstraint=eastwest;" parent="r0Q2gzQOlGDnuy_zxtXr-44" vertex="1">
          <mxGeometry y="26" width="160" height="26" as="geometry" />
        </mxCell>
        <mxCell id="r0Q2gzQOlGDnuy_zxtXr-46" value="&lt;&lt;setter&gt;&gt;+ cost1hour" style="text;align=left;verticalAlign=top;spacingLeft=4;spacingRight=4;overflow=hidden;rotatable=0;points=[[0,0.5],[1,0.5]];portConstraint=eastwest;rounded=0;shadow=0;html=0;" parent="r0Q2gzQOlGDnuy_zxtXr-44" vertex="1">
          <mxGeometry y="52" width="160" height="26" as="geometry" />
        </mxCell>
        <mxCell id="r0Q2gzQOlGDnuy_zxtXr-47" value="+ calc(float)" style="text;align=left;verticalAlign=top;spacingLeft=4;spacingRight=4;overflow=hidden;rotatable=0;points=[[0,0.5],[1,0.5]];portConstraint=eastwest;rounded=0;shadow=0;html=0;" parent="r0Q2gzQOlGDnuy_zxtXr-44" vertex="1">
          <mxGeometry y="78" width="160" height="26" as="geometry" />
        </mxCell>
        <mxCell id="r0Q2gzQOlGDnuy_zxtXr-48" value="&lt;&lt;getter&gt;&gt;+ x" style="text;align=left;verticalAlign=top;spacingLeft=4;spacingRight=4;overflow=hidden;rotatable=0;points=[[0,0.5],[1,0.5]];portConstraint=eastwest;" parent="r0Q2gzQOlGDnuy_zxtXr-44" vertex="1">
          <mxGeometry y="104" width="160" height="26" as="geometry" />
        </mxCell>
        <mxCell id="r0Q2gzQOlGDnuy_zxtXr-49" value="&lt;&lt;setter&gt;&gt;+ x" style="text;align=left;verticalAlign=top;spacingLeft=4;spacingRight=4;overflow=hidden;rotatable=0;points=[[0,0.5],[1,0.5]];portConstraint=eastwest;rounded=0;shadow=0;html=0;" parent="r0Q2gzQOlGDnuy_zxtXr-44" vertex="1">
          <mxGeometry y="130" width="160" height="26" as="geometry" />
        </mxCell>
        <mxCell id="r0Q2gzQOlGDnuy_zxtXr-62" value="&lt;&lt;getter&gt;&gt;+ a" style="text;align=left;verticalAlign=top;spacingLeft=4;spacingRight=4;overflow=hidden;rotatable=0;points=[[0,0.5],[1,0.5]];portConstraint=eastwest;" parent="r0Q2gzQOlGDnuy_zxtXr-44" vertex="1">
          <mxGeometry y="156" width="160" height="26" as="geometry" />
        </mxCell>
        <mxCell id="r0Q2gzQOlGDnuy_zxtXr-63" value="&lt;&lt;setter&gt;&gt;+ a" style="text;align=left;verticalAlign=top;spacingLeft=4;spacingRight=4;overflow=hidden;rotatable=0;points=[[0,0.5],[1,0.5]];portConstraint=eastwest;rounded=0;shadow=0;html=0;" parent="r0Q2gzQOlGDnuy_zxtXr-44" vertex="1">
          <mxGeometry y="182" width="160" height="26" as="geometry" />
        </mxCell>
        <mxCell id="r0Q2gzQOlGDnuy_zxtXr-50" value="BonusC2" style="swimlane;fontStyle=2;align=center;verticalAlign=top;childLayout=stackLayout;horizontal=1;startSize=26;horizontalStack=0;resizeParent=1;resizeLast=0;collapsible=1;marginBottom=0;rounded=0;shadow=0;strokeWidth=1;" parent="WIyWlLk6GJQsqaUBKTNV-1" vertex="1">
          <mxGeometry x="847" y="840" width="160" height="260" as="geometry">
            <mxRectangle x="230" y="140" width="160" height="26" as="alternateBounds" />
          </mxGeometry>
        </mxCell>
        <mxCell id="r0Q2gzQOlGDnuy_zxtXr-51" value="&lt;&lt;getter&gt;&gt;+ cost1hour" style="text;align=left;verticalAlign=top;spacingLeft=4;spacingRight=4;overflow=hidden;rotatable=0;points=[[0,0.5],[1,0.5]];portConstraint=eastwest;" parent="r0Q2gzQOlGDnuy_zxtXr-50" vertex="1">
          <mxGeometry y="26" width="160" height="26" as="geometry" />
        </mxCell>
        <mxCell id="r0Q2gzQOlGDnuy_zxtXr-52" value="&lt;&lt;setter&gt;&gt;+ cost1hour" style="text;align=left;verticalAlign=top;spacingLeft=4;spacingRight=4;overflow=hidden;rotatable=0;points=[[0,0.5],[1,0.5]];portConstraint=eastwest;rounded=0;shadow=0;html=0;" parent="r0Q2gzQOlGDnuy_zxtXr-50" vertex="1">
          <mxGeometry y="52" width="160" height="26" as="geometry" />
        </mxCell>
        <mxCell id="r0Q2gzQOlGDnuy_zxtXr-53" value="+ calc(float)" style="text;align=left;verticalAlign=top;spacingLeft=4;spacingRight=4;overflow=hidden;rotatable=0;points=[[0,0.5],[1,0.5]];portConstraint=eastwest;rounded=0;shadow=0;html=0;" parent="r0Q2gzQOlGDnuy_zxtXr-50" vertex="1">
          <mxGeometry y="78" width="160" height="26" as="geometry" />
        </mxCell>
        <mxCell id="r0Q2gzQOlGDnuy_zxtXr-54" value="&lt;&lt;getter&gt;&gt;+ x" style="text;align=left;verticalAlign=top;spacingLeft=4;spacingRight=4;overflow=hidden;rotatable=0;points=[[0,0.5],[1,0.5]];portConstraint=eastwest;" parent="r0Q2gzQOlGDnuy_zxtXr-50" vertex="1">
          <mxGeometry y="104" width="160" height="26" as="geometry" />
        </mxCell>
        <mxCell id="r0Q2gzQOlGDnuy_zxtXr-55" value="&lt;&lt;setter&gt;&gt;+ x" style="text;align=left;verticalAlign=top;spacingLeft=4;spacingRight=4;overflow=hidden;rotatable=0;points=[[0,0.5],[1,0.5]];portConstraint=eastwest;rounded=0;shadow=0;html=0;" parent="r0Q2gzQOlGDnuy_zxtXr-50" vertex="1">
          <mxGeometry y="130" width="160" height="26" as="geometry" />
        </mxCell>
        <mxCell id="r0Q2gzQOlGDnuy_zxtXr-56" value="&lt;&lt;getter&gt;&gt;+ y" style="text;align=left;verticalAlign=top;spacingLeft=4;spacingRight=4;overflow=hidden;rotatable=0;points=[[0,0.5],[1,0.5]];portConstraint=eastwest;" parent="r0Q2gzQOlGDnuy_zxtXr-50" vertex="1">
          <mxGeometry y="156" width="160" height="26" as="geometry" />
        </mxCell>
        <mxCell id="r0Q2gzQOlGDnuy_zxtXr-57" value="&lt;&lt;setter&gt;&gt;+ y" style="text;align=left;verticalAlign=top;spacingLeft=4;spacingRight=4;overflow=hidden;rotatable=0;points=[[0,0.5],[1,0.5]];portConstraint=eastwest;rounded=0;shadow=0;html=0;" parent="r0Q2gzQOlGDnuy_zxtXr-50" vertex="1">
          <mxGeometry y="182" width="160" height="26" as="geometry" />
        </mxCell>
        <mxCell id="r0Q2gzQOlGDnuy_zxtXr-60" value="&lt;&lt;getter&gt;&gt;+ a" style="text;align=left;verticalAlign=top;spacingLeft=4;spacingRight=4;overflow=hidden;rotatable=0;points=[[0,0.5],[1,0.5]];portConstraint=eastwest;" parent="r0Q2gzQOlGDnuy_zxtXr-50" vertex="1">
          <mxGeometry y="208" width="160" height="26" as="geometry" />
        </mxCell>
        <mxCell id="r0Q2gzQOlGDnuy_zxtXr-61" value="&lt;&lt;setter&gt;&gt;+ a" style="text;align=left;verticalAlign=top;spacingLeft=4;spacingRight=4;overflow=hidden;rotatable=0;points=[[0,0.5],[1,0.5]];portConstraint=eastwest;rounded=0;shadow=0;html=0;" parent="r0Q2gzQOlGDnuy_zxtXr-50" vertex="1">
          <mxGeometry y="234" width="160" height="26" as="geometry" />
        </mxCell>
        <mxCell id="r0Q2gzQOlGDnuy_zxtXr-66" value="BonusA3" style="swimlane;fontStyle=2;align=center;verticalAlign=top;childLayout=stackLayout;horizontal=1;startSize=26;horizontalStack=0;resizeParent=1;resizeLast=0;collapsible=1;marginBottom=0;rounded=0;shadow=0;strokeWidth=1;" parent="WIyWlLk6GJQsqaUBKTNV-1" vertex="1">
          <mxGeometry x="1070" y="400" width="160" height="220" as="geometry">
            <mxRectangle x="230" y="140" width="160" height="26" as="alternateBounds" />
          </mxGeometry>
        </mxCell>
        <mxCell id="r0Q2gzQOlGDnuy_zxtXr-67" value="&lt;&lt;getter&gt;&gt;+ cost1hour" style="text;align=left;verticalAlign=top;spacingLeft=4;spacingRight=4;overflow=hidden;rotatable=0;points=[[0,0.5],[1,0.5]];portConstraint=eastwest;" parent="r0Q2gzQOlGDnuy_zxtXr-66" vertex="1">
          <mxGeometry y="26" width="160" height="26" as="geometry" />
        </mxCell>
        <mxCell id="r0Q2gzQOlGDnuy_zxtXr-68" value="&lt;&lt;setter&gt;&gt;+ cost1hour" style="text;align=left;verticalAlign=top;spacingLeft=4;spacingRight=4;overflow=hidden;rotatable=0;points=[[0,0.5],[1,0.5]];portConstraint=eastwest;rounded=0;shadow=0;html=0;" parent="r0Q2gzQOlGDnuy_zxtXr-66" vertex="1">
          <mxGeometry y="52" width="160" height="26" as="geometry" />
        </mxCell>
        <mxCell id="r0Q2gzQOlGDnuy_zxtXr-69" value="+ calc(float)" style="text;align=left;verticalAlign=top;spacingLeft=4;spacingRight=4;overflow=hidden;rotatable=0;points=[[0,0.5],[1,0.5]];portConstraint=eastwest;rounded=0;shadow=0;html=0;" parent="r0Q2gzQOlGDnuy_zxtXr-66" vertex="1">
          <mxGeometry y="78" width="160" height="26" as="geometry" />
        </mxCell>
        <mxCell id="r0Q2gzQOlGDnuy_zxtXr-70" value="&lt;&lt;getter&gt;&gt;+ a" style="text;align=left;verticalAlign=top;spacingLeft=4;spacingRight=4;overflow=hidden;rotatable=0;points=[[0,0.5],[1,0.5]];portConstraint=eastwest;" parent="r0Q2gzQOlGDnuy_zxtXr-66" vertex="1">
          <mxGeometry y="104" width="160" height="26" as="geometry" />
        </mxCell>
        <mxCell id="r0Q2gzQOlGDnuy_zxtXr-71" value="&lt;&lt;setter&gt;&gt;+ a" style="text;align=left;verticalAlign=top;spacingLeft=4;spacingRight=4;overflow=hidden;rotatable=0;points=[[0,0.5],[1,0.5]];portConstraint=eastwest;rounded=0;shadow=0;html=0;" parent="r0Q2gzQOlGDnuy_zxtXr-66" vertex="1">
          <mxGeometry y="130" width="160" height="26" as="geometry" />
        </mxCell>
        <mxCell id="r0Q2gzQOlGDnuy_zxtXr-92" value="&lt;&lt;getter&gt;&gt;+ b" style="text;align=left;verticalAlign=top;spacingLeft=4;spacingRight=4;overflow=hidden;rotatable=0;points=[[0,0.5],[1,0.5]];portConstraint=eastwest;" parent="r0Q2gzQOlGDnuy_zxtXr-66" vertex="1">
          <mxGeometry y="156" width="160" height="26" as="geometry" />
        </mxCell>
        <mxCell id="r0Q2gzQOlGDnuy_zxtXr-93" value="&lt;&lt;setter&gt;&gt;+ b" style="text;align=left;verticalAlign=top;spacingLeft=4;spacingRight=4;overflow=hidden;rotatable=0;points=[[0,0.5],[1,0.5]];portConstraint=eastwest;rounded=0;shadow=0;html=0;" parent="r0Q2gzQOlGDnuy_zxtXr-66" vertex="1">
          <mxGeometry y="182" width="160" height="24" as="geometry" />
        </mxCell>
        <mxCell id="r0Q2gzQOlGDnuy_zxtXr-72" value="BonusB3" style="swimlane;fontStyle=2;align=center;verticalAlign=top;childLayout=stackLayout;horizontal=1;startSize=26;horizontalStack=0;resizeParent=1;resizeLast=0;collapsible=1;marginBottom=0;rounded=0;shadow=0;strokeWidth=1;" parent="WIyWlLk6GJQsqaUBKTNV-1" vertex="1">
          <mxGeometry x="1070" y="640" width="160" height="270" as="geometry">
            <mxRectangle x="230" y="140" width="160" height="26" as="alternateBounds" />
          </mxGeometry>
        </mxCell>
        <mxCell id="r0Q2gzQOlGDnuy_zxtXr-73" value="&lt;&lt;getter&gt;&gt;+ cost1hour" style="text;align=left;verticalAlign=top;spacingLeft=4;spacingRight=4;overflow=hidden;rotatable=0;points=[[0,0.5],[1,0.5]];portConstraint=eastwest;" parent="r0Q2gzQOlGDnuy_zxtXr-72" vertex="1">
          <mxGeometry y="26" width="160" height="26" as="geometry" />
        </mxCell>
        <mxCell id="r0Q2gzQOlGDnuy_zxtXr-74" value="&lt;&lt;setter&gt;&gt;+ cost1hour" style="text;align=left;verticalAlign=top;spacingLeft=4;spacingRight=4;overflow=hidden;rotatable=0;points=[[0,0.5],[1,0.5]];portConstraint=eastwest;rounded=0;shadow=0;html=0;" parent="r0Q2gzQOlGDnuy_zxtXr-72" vertex="1">
          <mxGeometry y="52" width="160" height="26" as="geometry" />
        </mxCell>
        <mxCell id="r0Q2gzQOlGDnuy_zxtXr-75" value="+ calc(float)" style="text;align=left;verticalAlign=top;spacingLeft=4;spacingRight=4;overflow=hidden;rotatable=0;points=[[0,0.5],[1,0.5]];portConstraint=eastwest;rounded=0;shadow=0;html=0;" parent="r0Q2gzQOlGDnuy_zxtXr-72" vertex="1">
          <mxGeometry y="78" width="160" height="26" as="geometry" />
        </mxCell>
        <mxCell id="r0Q2gzQOlGDnuy_zxtXr-76" value="&lt;&lt;getter&gt;&gt;+ x" style="text;align=left;verticalAlign=top;spacingLeft=4;spacingRight=4;overflow=hidden;rotatable=0;points=[[0,0.5],[1,0.5]];portConstraint=eastwest;" parent="r0Q2gzQOlGDnuy_zxtXr-72" vertex="1">
          <mxGeometry y="104" width="160" height="26" as="geometry" />
        </mxCell>
        <mxCell id="r0Q2gzQOlGDnuy_zxtXr-77" value="&lt;&lt;setter&gt;&gt;+ x" style="text;align=left;verticalAlign=top;spacingLeft=4;spacingRight=4;overflow=hidden;rotatable=0;points=[[0,0.5],[1,0.5]];portConstraint=eastwest;rounded=0;shadow=0;html=0;" parent="r0Q2gzQOlGDnuy_zxtXr-72" vertex="1">
          <mxGeometry y="130" width="160" height="26" as="geometry" />
        </mxCell>
        <mxCell id="r0Q2gzQOlGDnuy_zxtXr-78" value="&lt;&lt;getter&gt;&gt;+ a" style="text;align=left;verticalAlign=top;spacingLeft=4;spacingRight=4;overflow=hidden;rotatable=0;points=[[0,0.5],[1,0.5]];portConstraint=eastwest;" parent="r0Q2gzQOlGDnuy_zxtXr-72" vertex="1">
          <mxGeometry y="156" width="160" height="26" as="geometry" />
        </mxCell>
        <mxCell id="r0Q2gzQOlGDnuy_zxtXr-79" value="&lt;&lt;setter&gt;&gt;+ a" style="text;align=left;verticalAlign=top;spacingLeft=4;spacingRight=4;overflow=hidden;rotatable=0;points=[[0,0.5],[1,0.5]];portConstraint=eastwest;rounded=0;shadow=0;html=0;" parent="r0Q2gzQOlGDnuy_zxtXr-72" vertex="1">
          <mxGeometry y="182" width="160" height="26" as="geometry" />
        </mxCell>
        <mxCell id="r0Q2gzQOlGDnuy_zxtXr-90" value="&lt;&lt;getter&gt;&gt;+ b" style="text;align=left;verticalAlign=top;spacingLeft=4;spacingRight=4;overflow=hidden;rotatable=0;points=[[0,0.5],[1,0.5]];portConstraint=eastwest;" parent="r0Q2gzQOlGDnuy_zxtXr-72" vertex="1">
          <mxGeometry y="208" width="160" height="26" as="geometry" />
        </mxCell>
        <mxCell id="r0Q2gzQOlGDnuy_zxtXr-91" value="&lt;&lt;setter&gt;&gt;+ b" style="text;align=left;verticalAlign=top;spacingLeft=4;spacingRight=4;overflow=hidden;rotatable=0;points=[[0,0.5],[1,0.5]];portConstraint=eastwest;rounded=0;shadow=0;html=0;" parent="r0Q2gzQOlGDnuy_zxtXr-72" vertex="1">
          <mxGeometry y="234" width="160" height="24" as="geometry" />
        </mxCell>
        <mxCell id="r0Q2gzQOlGDnuy_zxtXr-80" value="BonusC3" style="swimlane;fontStyle=2;align=center;verticalAlign=top;childLayout=stackLayout;horizontal=1;startSize=26;horizontalStack=0;resizeParent=1;resizeLast=0;collapsible=1;marginBottom=0;rounded=0;shadow=0;strokeWidth=1;" parent="WIyWlLk6GJQsqaUBKTNV-1" vertex="1">
          <mxGeometry x="1070" y="930" width="160" height="320" as="geometry">
            <mxRectangle x="230" y="140" width="160" height="26" as="alternateBounds" />
          </mxGeometry>
        </mxCell>
        <mxCell id="r0Q2gzQOlGDnuy_zxtXr-81" value="&lt;&lt;getter&gt;&gt;+ cost1hour" style="text;align=left;verticalAlign=top;spacingLeft=4;spacingRight=4;overflow=hidden;rotatable=0;points=[[0,0.5],[1,0.5]];portConstraint=eastwest;" parent="r0Q2gzQOlGDnuy_zxtXr-80" vertex="1">
          <mxGeometry y="26" width="160" height="26" as="geometry" />
        </mxCell>
        <mxCell id="r0Q2gzQOlGDnuy_zxtXr-82" value="&lt;&lt;setter&gt;&gt;+ cost1hour" style="text;align=left;verticalAlign=top;spacingLeft=4;spacingRight=4;overflow=hidden;rotatable=0;points=[[0,0.5],[1,0.5]];portConstraint=eastwest;rounded=0;shadow=0;html=0;" parent="r0Q2gzQOlGDnuy_zxtXr-80" vertex="1">
          <mxGeometry y="52" width="160" height="26" as="geometry" />
        </mxCell>
        <mxCell id="r0Q2gzQOlGDnuy_zxtXr-83" value="+ calc(float)" style="text;align=left;verticalAlign=top;spacingLeft=4;spacingRight=4;overflow=hidden;rotatable=0;points=[[0,0.5],[1,0.5]];portConstraint=eastwest;rounded=0;shadow=0;html=0;" parent="r0Q2gzQOlGDnuy_zxtXr-80" vertex="1">
          <mxGeometry y="78" width="160" height="26" as="geometry" />
        </mxCell>
        <mxCell id="r0Q2gzQOlGDnuy_zxtXr-84" value="&lt;&lt;getter&gt;&gt;+ x" style="text;align=left;verticalAlign=top;spacingLeft=4;spacingRight=4;overflow=hidden;rotatable=0;points=[[0,0.5],[1,0.5]];portConstraint=eastwest;" parent="r0Q2gzQOlGDnuy_zxtXr-80" vertex="1">
          <mxGeometry y="104" width="160" height="26" as="geometry" />
        </mxCell>
        <mxCell id="r0Q2gzQOlGDnuy_zxtXr-85" value="&lt;&lt;setter&gt;&gt;+ x" style="text;align=left;verticalAlign=top;spacingLeft=4;spacingRight=4;overflow=hidden;rotatable=0;points=[[0,0.5],[1,0.5]];portConstraint=eastwest;rounded=0;shadow=0;html=0;" parent="r0Q2gzQOlGDnuy_zxtXr-80" vertex="1">
          <mxGeometry y="130" width="160" height="26" as="geometry" />
        </mxCell>
        <mxCell id="r0Q2gzQOlGDnuy_zxtXr-86" value="&lt;&lt;getter&gt;&gt;+ y" style="text;align=left;verticalAlign=top;spacingLeft=4;spacingRight=4;overflow=hidden;rotatable=0;points=[[0,0.5],[1,0.5]];portConstraint=eastwest;" parent="r0Q2gzQOlGDnuy_zxtXr-80" vertex="1">
          <mxGeometry y="156" width="160" height="26" as="geometry" />
        </mxCell>
        <mxCell id="r0Q2gzQOlGDnuy_zxtXr-87" value="&lt;&lt;setter&gt;&gt;+ y" style="text;align=left;verticalAlign=top;spacingLeft=4;spacingRight=4;overflow=hidden;rotatable=0;points=[[0,0.5],[1,0.5]];portConstraint=eastwest;rounded=0;shadow=0;html=0;" parent="r0Q2gzQOlGDnuy_zxtXr-80" vertex="1">
          <mxGeometry y="182" width="160" height="26" as="geometry" />
        </mxCell>
        <mxCell id="r0Q2gzQOlGDnuy_zxtXr-88" value="&lt;&lt;getter&gt;&gt;+ a" style="text;align=left;verticalAlign=top;spacingLeft=4;spacingRight=4;overflow=hidden;rotatable=0;points=[[0,0.5],[1,0.5]];portConstraint=eastwest;" parent="r0Q2gzQOlGDnuy_zxtXr-80" vertex="1">
          <mxGeometry y="208" width="160" height="26" as="geometry" />
        </mxCell>
        <mxCell id="r0Q2gzQOlGDnuy_zxtXr-89" value="&lt;&lt;setter&gt;&gt;+ a" style="text;align=left;verticalAlign=top;spacingLeft=4;spacingRight=4;overflow=hidden;rotatable=0;points=[[0,0.5],[1,0.5]];portConstraint=eastwest;rounded=0;shadow=0;html=0;" parent="r0Q2gzQOlGDnuy_zxtXr-80" vertex="1">
          <mxGeometry y="234" width="160" height="26" as="geometry" />
        </mxCell>
        <mxCell id="r0Q2gzQOlGDnuy_zxtXr-94" value="&lt;&lt;getter&gt;&gt;+ b" style="text;align=left;verticalAlign=top;spacingLeft=4;spacingRight=4;overflow=hidden;rotatable=0;points=[[0,0.5],[1,0.5]];portConstraint=eastwest;" parent="r0Q2gzQOlGDnuy_zxtXr-80" vertex="1">
          <mxGeometry y="260" width="160" height="26" as="geometry" />
        </mxCell>
        <mxCell id="r0Q2gzQOlGDnuy_zxtXr-95" value="&lt;&lt;setter&gt;&gt;+ b" style="text;align=left;verticalAlign=top;spacingLeft=4;spacingRight=4;overflow=hidden;rotatable=0;points=[[0,0.5],[1,0.5]];portConstraint=eastwest;rounded=0;shadow=0;html=0;" parent="r0Q2gzQOlGDnuy_zxtXr-80" vertex="1">
          <mxGeometry y="286" width="160" height="24" as="geometry" />
        </mxCell>
        <mxCell id="r0Q2gzQOlGDnuy_zxtXr-96" value="Employee" style="swimlane;fontStyle=2;align=center;verticalAlign=top;childLayout=stackLayout;horizontal=1;startSize=26;horizontalStack=0;resizeParent=1;resizeLast=0;collapsible=1;marginBottom=0;rounded=0;shadow=0;strokeWidth=1;" parent="WIyWlLk6GJQsqaUBKTNV-1" vertex="1">
          <mxGeometry x="200" y="530" width="230" height="130" as="geometry">
            <mxRectangle x="230" y="140" width="160" height="26" as="alternateBounds" />
          </mxGeometry>
        </mxCell>
        <mxCell id="r0Q2gzQOlGDnuy_zxtXr-97" value="&lt;&lt;getter&gt;&gt;+ bonus" style="text;align=left;verticalAlign=top;spacingLeft=4;spacingRight=4;overflow=hidden;rotatable=0;points=[[0,0.5],[1,0.5]];portConstraint=eastwest;" parent="r0Q2gzQOlGDnuy_zxtXr-96" vertex="1">
          <mxGeometry y="26" width="230" height="26" as="geometry" />
        </mxCell>
        <mxCell id="r0Q2gzQOlGDnuy_zxtXr-98" value="&lt;&lt;setter&gt;&gt;+ bonus" style="text;align=left;verticalAlign=top;spacingLeft=4;spacingRight=4;overflow=hidden;rotatable=0;points=[[0,0.5],[1,0.5]];portConstraint=eastwest;rounded=0;shadow=0;html=0;" parent="r0Q2gzQOlGDnuy_zxtXr-96" vertex="1">
          <mxGeometry y="52" width="230" height="26" as="geometry" />
        </mxCell>
        <mxCell id="r0Q2gzQOlGDnuy_zxtXr-99" value="&lt;&lt;constructor&gt;&gt;+ Employee(IBonus)" style="text;align=left;verticalAlign=top;spacingLeft=4;spacingRight=4;overflow=hidden;rotatable=0;points=[[0,0.5],[1,0.5]];portConstraint=eastwest;rounded=0;shadow=0;html=0;" parent="r0Q2gzQOlGDnuy_zxtXr-96" vertex="1">
          <mxGeometry y="78" width="230" height="26" as="geometry" />
        </mxCell>
        <mxCell id="r0Q2gzQOlGDnuy_zxtXr-100" value="+ calcBonus(float)" style="text;align=left;verticalAlign=top;spacingLeft=4;spacingRight=4;overflow=hidden;rotatable=0;points=[[0,0.5],[1,0.5]];portConstraint=eastwest;rounded=0;shadow=0;html=0;" parent="r0Q2gzQOlGDnuy_zxtXr-96" vertex="1">
          <mxGeometry y="104" width="230" height="26" as="geometry" />
        </mxCell>
        <mxCell id="r0Q2gzQOlGDnuy_zxtXr-102" value="" style="endArrow=none;html=1;rounded=0;entryX=0.5;entryY=0;entryDx=0;entryDy=0;" parent="WIyWlLk6GJQsqaUBKTNV-1" target="r0Q2gzQOlGDnuy_zxtXr-8" edge="1">
          <mxGeometry width="50" height="50" relative="1" as="geometry">
            <mxPoint x="470" y="260" as="sourcePoint" />
            <mxPoint x="530" y="370" as="targetPoint" />
          </mxGeometry>
        </mxCell>
        <mxCell id="r0Q2gzQOlGDnuy_zxtXr-103" value="" style="endArrow=none;html=1;rounded=0;exitX=0.5;exitY=0;exitDx=0;exitDy=0;" parent="WIyWlLk6GJQsqaUBKTNV-1" source="r0Q2gzQOlGDnuy_zxtXr-4" edge="1">
          <mxGeometry width="50" height="50" relative="1" as="geometry">
            <mxPoint x="480" y="420" as="sourcePoint" />
            <mxPoint x="290" y="260" as="targetPoint" />
          </mxGeometry>
        </mxCell>
        <mxCell id="r0Q2gzQOlGDnuy_zxtXr-104" value="" style="endArrow=none;html=1;rounded=0;exitX=0.5;exitY=0;exitDx=0;exitDy=0;" parent="WIyWlLk6GJQsqaUBKTNV-1" source="r0Q2gzQOlGDnuy_zxtXr-0" edge="1">
          <mxGeometry width="50" height="50" relative="1" as="geometry">
            <mxPoint x="120" y="310" as="sourcePoint" />
            <mxPoint x="120" y="260" as="targetPoint" />
          </mxGeometry>
        </mxCell>
        <mxCell id="r0Q2gzQOlGDnuy_zxtXr-105" value="" style="endArrow=classic;html=1;rounded=0;entryX=0;entryY=0;entryDx=0;entryDy=0;" parent="WIyWlLk6GJQsqaUBKTNV-1" target="r0Q2gzQOlGDnuy_zxtXr-12" edge="1">
          <mxGeometry width="50" height="50" relative="1" as="geometry">
            <mxPoint x="120" y="260" as="sourcePoint" />
            <mxPoint x="840" y="260" as="targetPoint" />
          </mxGeometry>
        </mxCell>
        <mxCell id="r0Q2gzQOlGDnuy_zxtXr-111" value="" style="endArrow=none;dashed=1;html=1;rounded=0;" parent="WIyWlLk6GJQsqaUBKTNV-1" edge="1">
          <mxGeometry width="50" height="50" relative="1" as="geometry">
            <mxPoint x="160" y="280" as="sourcePoint" />
            <mxPoint x="430" y="280" as="targetPoint" />
          </mxGeometry>
        </mxCell>
        <mxCell id="r0Q2gzQOlGDnuy_zxtXr-112" value="" style="endArrow=none;dashed=1;html=1;rounded=0;entryX=0.25;entryY=0;entryDx=0;entryDy=0;" parent="WIyWlLk6GJQsqaUBKTNV-1" target="r0Q2gzQOlGDnuy_zxtXr-8" edge="1">
          <mxGeometry width="50" height="50" relative="1" as="geometry">
            <mxPoint x="430" y="280" as="sourcePoint" />
            <mxPoint x="390" y="330" as="targetPoint" />
          </mxGeometry>
        </mxCell>
        <mxCell id="r0Q2gzQOlGDnuy_zxtXr-113" value="" style="endArrow=none;dashed=1;html=1;rounded=0;exitX=0.75;exitY=0;exitDx=0;exitDy=0;" parent="WIyWlLk6GJQsqaUBKTNV-1" source="r0Q2gzQOlGDnuy_zxtXr-0" edge="1">
          <mxGeometry width="50" height="50" relative="1" as="geometry">
            <mxPoint x="340" y="380" as="sourcePoint" />
            <mxPoint x="160" y="280" as="targetPoint" />
          </mxGeometry>
        </mxCell>
        <mxCell id="r0Q2gzQOlGDnuy_zxtXr-114" value="" style="endArrow=block;html=1;rounded=0;dashed=1;endFill=0;exitX=0.25;exitY=0;exitDx=0;exitDy=0;" parent="WIyWlLk6GJQsqaUBKTNV-1" source="r0Q2gzQOlGDnuy_zxtXr-4" edge="1">
          <mxGeometry width="50" height="50" relative="1" as="geometry">
            <mxPoint x="340" y="380" as="sourcePoint" />
            <mxPoint x="250" y="230" as="targetPoint" />
          </mxGeometry>
        </mxCell>
        <mxCell id="r0Q2gzQOlGDnuy_zxtXr-115" value="" style="endArrow=block;html=1;rounded=0;dashed=1;endFill=0;exitX=0.5;exitY=0;exitDx=0;exitDy=0;entryX=0.5;entryY=1;entryDx=0;entryDy=0;" parent="WIyWlLk6GJQsqaUBKTNV-1" source="r0Q2gzQOlGDnuy_zxtXr-40" target="r0Q2gzQOlGDnuy_zxtXr-12" edge="1">
          <mxGeometry width="50" height="50" relative="1" as="geometry">
            <mxPoint x="260" y="330" as="sourcePoint" />
            <mxPoint x="260" y="240" as="targetPoint" />
          </mxGeometry>
        </mxCell>
        <mxCell id="r0Q2gzQOlGDnuy_zxtXr-116" value="" style="endArrow=none;dashed=1;html=1;rounded=0;" parent="WIyWlLk6GJQsqaUBKTNV-1" edge="1">
          <mxGeometry width="50" height="50" relative="1" as="geometry">
            <mxPoint x="810" y="390" as="sourcePoint" />
            <mxPoint x="1040" y="390" as="targetPoint" />
          </mxGeometry>
        </mxCell>
        <mxCell id="r0Q2gzQOlGDnuy_zxtXr-117" value="" style="endArrow=none;dashed=1;html=1;rounded=0;" parent="WIyWlLk6GJQsqaUBKTNV-1" edge="1">
          <mxGeometry width="50" height="50" relative="1" as="geometry">
            <mxPoint x="810" y="850" as="sourcePoint" />
            <mxPoint x="810" y="390" as="targetPoint" />
          </mxGeometry>
        </mxCell>
        <mxCell id="r0Q2gzQOlGDnuy_zxtXr-118" value="" style="endArrow=none;dashed=1;html=1;rounded=0;entryX=0.019;entryY=0.038;entryDx=0;entryDy=0;entryPerimeter=0;" parent="WIyWlLk6GJQsqaUBKTNV-1" target="r0Q2gzQOlGDnuy_zxtXr-50" edge="1">
          <mxGeometry width="50" height="50" relative="1" as="geometry">
            <mxPoint x="810" y="850" as="sourcePoint" />
            <mxPoint x="840" y="850" as="targetPoint" />
          </mxGeometry>
        </mxCell>
        <mxCell id="r0Q2gzQOlGDnuy_zxtXr-119" value="" style="endArrow=none;dashed=1;html=1;rounded=0;" parent="WIyWlLk6GJQsqaUBKTNV-1" edge="1">
          <mxGeometry width="50" height="50" relative="1" as="geometry">
            <mxPoint x="1040" y="940" as="sourcePoint" />
            <mxPoint x="1040" y="390" as="targetPoint" />
          </mxGeometry>
        </mxCell>
        <mxCell id="r0Q2gzQOlGDnuy_zxtXr-120" value="" style="endArrow=none;dashed=1;html=1;rounded=0;entryX=0.011;entryY=0.029;entryDx=0;entryDy=0;entryPerimeter=0;" parent="WIyWlLk6GJQsqaUBKTNV-1" target="r0Q2gzQOlGDnuy_zxtXr-80" edge="1">
          <mxGeometry width="50" height="50" relative="1" as="geometry">
            <mxPoint x="1040" y="940" as="sourcePoint" />
            <mxPoint x="1060" y="920" as="targetPoint" />
          </mxGeometry>
        </mxCell>
        <mxCell id="r0Q2gzQOlGDnuy_zxtXr-121" value="" style="endArrow=none;dashed=1;html=1;rounded=0;entryX=1.01;entryY=0.067;entryDx=0;entryDy=0;entryPerimeter=0;" parent="WIyWlLk6GJQsqaUBKTNV-1" target="r0Q2gzQOlGDnuy_zxtXr-32" edge="1">
          <mxGeometry width="50" height="50" relative="1" as="geometry">
            <mxPoint x="810" y="734" as="sourcePoint" />
            <mxPoint x="800" y="600" as="targetPoint" />
          </mxGeometry>
        </mxCell>
        <mxCell id="r0Q2gzQOlGDnuy_zxtXr-122" value="" style="endArrow=none;dashed=1;html=1;rounded=0;entryX=1.016;entryY=0.076;entryDx=0;entryDy=0;entryPerimeter=0;" parent="WIyWlLk6GJQsqaUBKTNV-1" target="r0Q2gzQOlGDnuy_zxtXr-20" edge="1">
          <mxGeometry width="50" height="50" relative="1" as="geometry">
            <mxPoint x="810" y="543" as="sourcePoint" />
            <mxPoint x="810" y="610" as="targetPoint" />
          </mxGeometry>
        </mxCell>
        <mxCell id="r0Q2gzQOlGDnuy_zxtXr-123" value="" style="endArrow=none;dashed=1;html=1;rounded=0;entryX=1.01;entryY=0.128;entryDx=0;entryDy=0;entryPerimeter=0;" parent="WIyWlLk6GJQsqaUBKTNV-1" target="r0Q2gzQOlGDnuy_zxtXr-16" edge="1">
          <mxGeometry width="50" height="50" relative="1" as="geometry">
            <mxPoint x="810" y="414" as="sourcePoint" />
            <mxPoint x="820" y="620" as="targetPoint" />
          </mxGeometry>
        </mxCell>
        <mxCell id="r0Q2gzQOlGDnuy_zxtXr-124" value="" style="endArrow=none;dashed=1;html=1;rounded=0;exitX=0.011;exitY=0.061;exitDx=0;exitDy=0;exitPerimeter=0;" parent="WIyWlLk6GJQsqaUBKTNV-1" source="r0Q2gzQOlGDnuy_zxtXr-40" edge="1">
          <mxGeometry width="50" height="50" relative="1" as="geometry">
            <mxPoint x="780" y="680" as="sourcePoint" />
            <mxPoint x="810" y="410" as="targetPoint" />
          </mxGeometry>
        </mxCell>
        <mxCell id="r0Q2gzQOlGDnuy_zxtXr-125" value="" style="endArrow=none;dashed=1;html=1;rounded=0;entryX=-0.007;entryY=0.065;entryDx=0;entryDy=0;entryPerimeter=0;" parent="WIyWlLk6GJQsqaUBKTNV-1" target="r0Q2gzQOlGDnuy_zxtXr-44" edge="1">
          <mxGeometry width="50" height="50" relative="1" as="geometry">
            <mxPoint x="810" y="614" as="sourcePoint" />
            <mxPoint x="840" y="640" as="targetPoint" />
          </mxGeometry>
        </mxCell>
        <mxCell id="r0Q2gzQOlGDnuy_zxtXr-126" value="" style="endArrow=none;dashed=1;html=1;rounded=0;entryX=-0.006;entryY=0.06;entryDx=0;entryDy=0;entryPerimeter=0;" parent="WIyWlLk6GJQsqaUBKTNV-1" target="r0Q2gzQOlGDnuy_zxtXr-66" edge="1">
          <mxGeometry width="50" height="50" relative="1" as="geometry">
            <mxPoint x="1040" y="413" as="sourcePoint" />
            <mxPoint x="850" y="650" as="targetPoint" />
          </mxGeometry>
        </mxCell>
        <mxCell id="r0Q2gzQOlGDnuy_zxtXr-127" value="" style="endArrow=none;dashed=1;html=1;rounded=0;entryX=-0.006;entryY=0.056;entryDx=0;entryDy=0;entryPerimeter=0;" parent="WIyWlLk6GJQsqaUBKTNV-1" target="r0Q2gzQOlGDnuy_zxtXr-72" edge="1">
          <mxGeometry width="50" height="50" relative="1" as="geometry">
            <mxPoint x="1040" y="655" as="sourcePoint" />
            <mxPoint x="860" y="660" as="targetPoint" />
          </mxGeometry>
        </mxCell>
      </root>
    </mxGraphModel>
  </diagram>
</mxfile>
